<svg xmlns="http://www.w3.org/2000/svg" width="600" height="400" viewBox="0 0 600 400" fill="none">
  <rect width="600" height="400" rx="12" fill="#F9FAFB"/>
  <rect x="40" y="40" width="520" height="60" rx="8" fill="white" stroke="#E5E7EB" stroke-width="2"/>
  <rect x="60" y="60" width="200" height="20" rx="4" fill="#E0E7FF"/>
  <rect x="280" y="60" width="120" height="20" rx="4" fill="#E5E7EB"/>
  <rect x="420" y="60" width="120" height="20" rx="4" fill="#E5E7EB"/>
  <rect x="40" y="120" width="260" height="240" rx="8" fill="white" stroke="#E5E7EB" stroke-width="2"/>
  <rect x="60" y="140" width="220" height="16" rx="4" fill="#E5E7EB"/>
  <rect x="60" y="166" width="180" height="16" rx="4" fill="#E5E7EB"/>
  <rect x="60" y="192" width="200" height="16" rx="4" fill="#E5E7EB"/>
  <rect x="60" y="218" width="160" height="16" rx="4" fill="#E5E7EB"/>
  <rect x="60" y="244" width="220" height="16" rx="4" fill="#E5E7EB"/>
  <rect x="60" y="270" width="190" height="16" rx="4" fill="#E5E7EB"/>
  <rect x="60" y="320" width="100" height="30" rx="6" fill="#4F46E5"/>
  <rect x="180" y="320" width="100" height="30" rx="6" fill="#E0E7FF" stroke="#4F46E5" stroke-width="2"/>
  <rect x="320" y="120" width="240" height="240" rx="8" fill="white" stroke="#E5E7EB" stroke-width="2"/>
  <rect x="340" y="140" width="200" height="190" rx="4" fill="#E0E7FF"/>
  <rect x="340" y="340" width="80" height="10" rx="4" fill="#E5E7EB"/>
  <rect x="340" y="355" width="140" height="10" rx="4" fill="#E5E7EB"/>
  <circle cx="440" cy="230" r="60" fill="#4F46E5" opacity="0.7"/>
  <path d="M420 230L435 245L465 215" stroke="white" stroke-width="6" stroke-linecap="round" stroke-linejoin="round"/>
</svg>

